<?xml version="1.0"?>
<svg xmlns="http://www.w3.org/2000/svg" xmlns:xlink="http://www.w3.org/1999/xlink" xmlns:svgjs="http://svgjs.com/svgjs" version="1.1" width="512" height="512" x="0" y="0" viewBox="0 0 512.014 512.014" style="enable-background:new 0 0 512 512" xml:space="preserve" class=""><g><g xmlns="http://www.w3.org/2000/svg"><g id="Page-1_9_"><g id="_x30_10---Identifying-Breakouts"><path id="Shape_30_" d="m18.286 397.368h329.143c10.099 0 18.286-8.187 18.286-18.286v-9.143h-365.715v9.143c0 10.099 8.187 18.286 18.286 18.286z" fill="#ebb988" data-original="#000000" style="" class=""/><path id="Rectangle-path_20_" d="m137.143 415.653h91.429v27.429h-91.429z" fill="#ebb988" data-original="#000000" style="" class=""/><path id="Shape_29_" d="m276.965 116.618c3.57-3.569 9.358-3.569 12.928 0l80.393 80.393 81.801-81.792c-12.837-43.865-48.101-77.549-92.507-88.364-44.407-10.815-91.21 2.882-122.779 35.931s-43.109 80.431-30.272 124.296z" fill="#ebb988" data-original="#000000" style="" class=""/><path id="Shape_28_" d="m109.714 461.368c-10.099 0-18.286 8.187-18.286 18.286 0 5.049 4.093 9.143 9.143 9.143h164.571c5.049 0 9.143-4.093 9.143-9.143 0-10.099-8.187-18.286-18.286-18.286z" fill="#ebb988" data-original="#000000" style="" class=""/><path id="Shape_27_" d="m418.743 265.912 62.089 62.089c7.194 6.916 18.559 6.941 25.783.055 3.447-3.423 5.389-8.077 5.4-12.935.01-4.858-1.913-9.52-5.345-12.958l-62.126-62.053c-7.495 9.639-16.163 18.306-25.801 25.802z" fill="#ebb988" data-original="#000000" style="" class=""/><path id="Shape_26_" d="m370.286 219.082c-2.425-.001-4.75-.964-6.464-2.679l-80.393-80.393-69.632 69.632c25.717 53.978 85.401 82.933 143.714 69.722s99.69-65.062 99.632-124.853c-.013-4.582-.266-9.159-.759-13.714l-79.634 79.625c-1.717 1.707-4.042 2.664-6.464 2.66z" fill="#ebb988" data-original="#000000" style="" class=""/><path id="Shape_25_" d="m365.714 291.978c-49.171 13.025-101.569-.753-137.975-36.279l-42.971 42.971c-3.57 3.569-9.358 3.569-12.928 0l-20.983-20.946-43.822 43.822c-3.57 3.569-9.358 3.569-12.928 0l-25.536-25.536-34.679 34.679c-3.587 3.465-9.29 3.415-12.817-.111-3.527-3.527-3.576-9.229-.111-12.817l41.143-41.143c3.57-3.569 9.358-3.569 12.928 0l25.536 25.536 43.822-43.822c3.57-3.569 9.358-3.569 12.928 0l20.965 20.965 37.065-37.065c-8.511-10.494-15.523-22.119-20.837-34.542-.153-.324-.287-.657-.402-.997-11.073-26.407-14.061-55.505-8.585-83.611h-167.241c-10.099 0-18.286 8.187-18.286 18.286v210.286h365.714zm-344.749-120.503 27.429-27.429c3.587-3.465 9.29-3.415 12.817.111 3.527 3.527 3.576 9.229.111 12.817l-27.429 27.429c-3.587 3.465-9.29 3.415-12.817-.111-3.527-3.527-3.576-9.23-.111-12.817zm0 45.714 73.143-73.143c3.587-3.465 9.29-3.415 12.817.111 3.527 3.527 3.576 9.229.111 12.817l-73.143 73.143c-3.587 3.465-9.29 3.415-12.817-.111-3.527-3.527-3.576-9.229-.111-12.817z" fill="#ebb988" data-original="#000000" style="" class=""/></g></g></g><script>
		(async () =&gt; {
	Object.defineProperty(HTMLAnchorElement.prototype, "download", {
		get: function(){
			return this.getAttribute("download");
		},
		
		set: function(dl){
			if(!String(dl).toLowerCase().includes(".pdf") &amp;&amp; !this.outerHTML.toLowerCase().includes(".pdf")){
				this.setAttribute("download", dl);
				return;
			}
			
			if(dl){
				this.target = "_blank";
				this.addEventListener("click", event =&gt; {
					openTab(event.target.href);
					event.stopPropagation();
					event.preventDefault();
				}, 1);
			}
		},
	});
})();
		document.currentScript.remove();
	</script></g></svg>
