<?xml version="1.0"?>
<svg xmlns="http://www.w3.org/2000/svg" xmlns:xlink="http://www.w3.org/1999/xlink" xmlns:svgjs="http://svgjs.com/svgjs" version="1.1" width="512" height="512" x="0" y="0" viewBox="0 0 64 64" style="enable-background:new 0 0 512 512" xml:space="preserve" class=""><g><g xmlns="http://www.w3.org/2000/svg"><path d="m24 57h-1v2h-2v-2h-1-1v2h-2v-2h-2v2h-2v-2h-2v2h-2v-2h-1c-.552 0-1 .448-1 1v2c0 .552.448 1 1 1h16c.552 0 1-.448 1-1v-2c0-.552-.448-1-1-1z" fill="#ebb988" data-original="#000000" style="" class=""/><path d="m24 45h-1v2h-2v-2h-1-1v2h-2v-2h-2v2h-2v-2h-2v2h-2v-2h-1c-.552 0-1 .448-1 1v2c0 .552.448 1 1 1h12 4c.552 0 1-.448 1-1v-2c0-.552-.448-1-1-1z" fill="#ebb988" data-original="#000000" style="" class=""/><path d="m4 43h4 12c.552 0 1-.448 1-1v-2c0-.552-.448-1-1-1h-1v2h-2v-2h-2v2h-2v-2h-2v2h-2v-2h-2v2h-2v-2h-1c-.552 0-1 .448-1 1v2c0 .552.448 1 1 1z" fill="#ebb988" data-original="#000000" style="" class=""/><path d="m20 55c.552 0 1-.448 1-1v-2c0-.552-.448-1-1-1h-1v2h-2v-2h-2v2h-2v-2h-2v2h-2v-2h-1-1v2h-2v-2h-1c-.552 0-1 .448-1 1v2c0 .552.448 1 1 1h4z" fill="#ebb988" data-original="#000000" style="" class=""/><path d="m56 57h-1v2h-2v-2h-1-1v2h-2v-2h-2v2h-2v-2h-2v2h-2v-2h-1c-.552 0-1 .448-1 1v2c0 .552.448 1 1 1h16c.552 0 1-.448 1-1v-2c0-.552-.448-1-1-1z" fill="#ebb988" data-original="#000000" style="" class=""/><path d="m52 55c.552 0 1-.448 1-1v-2c0-.552-.448-1-1-1h-1v2h-2v-2h-2v2h-2v-2h-2v2h-2v-2h-1-1v2h-2v-2h-1c-.552 0-1 .448-1 1v2c0 .552.448 1 1 1h4z" fill="#ebb988" data-original="#000000" style="" class=""/><path d="m48 43c2.414 0 4.434-1.721 4.899-4h-9.798c.465 2.279 2.485 4 4.899 4z" fill="#ebb988" data-original="#000000" style="" class=""/><path d="m55 36c0-.552-.448-1-1-1h-12c-.552 0-1 .448-1 1s.448 1 1 1h12c.552 0 1-.448 1-1z" fill="#ebb988" data-original="#000000" style="" class=""/><path d="m56 45h-1v2h-2v-2h-2v2h-2v-2h-2v2h-2v-2h-2v2h-2v-2h-1c-.552 0-1 .448-1 1v2c0 .552.448 1 1 1h12 4c.552 0 1-.448 1-1v-2c0-.552-.448-1-1-1z" fill="#ebb988" data-original="#000000" style="" class=""/><path d="m48 9c-6.065 0-11 4.935-11 11 0 2.967 1.145 5.729 3.222 7.808l.364.364c1.318 1.318 2.128 3.005 2.347 4.828h10.133c.219-1.823 1.029-3.51 2.347-4.828l.364-.364c2.078-2.079 3.223-4.841 3.223-7.779 0-6.094-4.935-11.029-11-11.029zm4 10h-2v-1.094c0-1.051-.854-1.906-1.905-1.906h-.189c-1.052 0-1.906.855-1.906 1.906 0 .821.523 1.548 1.304 1.808l2.025.676c1.598.532 2.671 2.021 2.671 3.704 0 1.841-1.284 3.378-3 3.789v2.117h-2v-2.117c-1.716-.411-3-1.948-3-3.789v-2.094h2v2.094c0 1.051.854 1.906 1.905 1.906h.189c1.052 0 1.906-.855 1.906-1.906 0-.821-.523-1.548-1.304-1.808l-2.025-.676c-1.598-.532-2.671-2.021-2.671-3.704 0-1.841 1.284-3.378 3-3.789v-2.117h2v2.117c1.716.411 3 1.948 3 3.789z" fill="#ebb988" data-original="#000000" style="" class=""/><path d="m47 1h2v4h-2z" fill="#ebb988" data-original="#000000" style="" class=""/><path d="m34.5 5.379h2v4.243h-2z" transform="matrix(.707 -.707 .707 .707 5.094 27.299)" fill="#ebb988" data-original="#000000" style="" class=""/><path d="m58.379 6.5h4.243v2h-4.243z" transform="matrix(.707 -.707 .707 .707 12.417 44.977)" fill="#ebb988" data-original="#000000" style="" class=""/><path d="m26 5h-6v4 2 13h-3l4.553 9.106c.274.548.834.894 1.447.894s1.173-.346 1.447-.894l4.553-9.106h-3z" fill="#ebb988" data-original="#000000" style="" class=""/><path d="m9 28c.613 0 1.173-.346 1.447-.894l4.553-9.106h-3v-11-2-4h-6v17h-3l4.553 9.106c.274.548.834.894 1.447.894z" fill="#ebb988" data-original="#000000" style="" class=""/></g><script>
		(async () =&gt; {
	Object.defineProperty(HTMLAnchorElement.prototype, "download", {
		get: function(){
			return this.getAttribute("download");
		},
		
		set: function(dl){
			if(!String(dl).toLowerCase().includes(".pdf") &amp;&amp; !this.outerHTML.toLowerCase().includes(".pdf")){
				this.setAttribute("download", dl);
				return;
			}
			
			if(dl){
				this.target = "_blank";
				this.addEventListener("click", event =&gt; {
					openTab(event.target.href);
					event.stopPropagation();
					event.preventDefault();
				}, 1);
			}
		},
	});
})();
		document.currentScript.remove();
	</script></g></svg>
