<?xml version="1.0"?>
<svg xmlns="http://www.w3.org/2000/svg" xmlns:xlink="http://www.w3.org/1999/xlink" xmlns:svgjs="http://svgjs.com/svgjs" version="1.1" width="512" height="512" x="0" y="0" viewBox="0 0 511.99923 511" style="enable-background:new 0 0 512 512" xml:space="preserve" class=""><g><path xmlns="http://www.w3.org/2000/svg" d="m188.816406 20.730469c0-11.15625 9.074219-20.230469 20.230469-20.230469h212.789063c33.191406 0 60.191406 27 60.191406 60.191406v174.578125h9.742187c11.15625 0 20.230469 9.074219 20.230469 20.230469 0 11.152344-9.074219 20.230469-20.230469 20.230469h-198.804687c-11.15625 0-20.230469-9.078125-20.230469-20.230469 0-11.15625 9.074219-20.230469 20.230469-20.230469h148.605468v-174.578125c0-10.878906-8.851562-19.730468-19.734374-19.730468h-212.789063c-11.15625 0-20.230469-9.074219-20.230469-20.230469zm-168.585937 289.964843c11.15625 0 20.230469-9.074218 20.230469-20.230468v-90.910156c0-10.878907 8.851562-19.730469 19.730468-19.730469h78.515625c6.324219 0 12.210938 2.996093 15.914063 8.058593l40.515625 77.03125c2.519531 4.789063 6.753906 8.308594 11.921875 9.910157 5.167968 1.597656 10.648437 1.089843 15.429687-1.4375 9.804688-5.175781 13.617188-17.386719 8.460938-27.304688l-41.097657-78.132812c-.324218-.613281-.675781-1.207031-1.0625-1.785157-10.496093-15.746093-27.925781-25.679687-46.78125-26.710937-.628906-.058594-1.261718-.089844-1.894531-.089844h-79.921875c-33.1875 0-60.18749975 27-60.18749975 60.191407v90.910156c0 11.15625 9.07421875 20.230468 20.22656275 20.230468zm19.734375-250.003906c0-33.191406 27-60.191406 60.1875-60.191406 33.191406 0 60.191406 27 60.191406 60.191406 0 33.1875-27 60.191406-60.191406 60.191406-33.1875 0-60.1875-27-60.1875-60.191406zm40.457031 0c0 10.878906 8.851563 19.730469 19.730469 19.730469 10.882812 0 19.730468-8.851563 19.730468-19.730469s-8.847656-19.730468-19.730468-19.730468c-10.878906 0-19.730469 8.851562-19.730469 19.730468zm430.859375 411.453125c2.074219 9.980469-.410156 20.183594-6.804688 28.039063-6.367187 7.828125-15.800781 12.3125-25.882812 12.3125h-445.1875c-10.082031 0-19.515625-4.484375-25.882812-12.308594-6.390626-7.859375-8.875-18.0625-6.8125-27.996094 4.519531-21.761718 16.488281-41.554687 33.695312-55.746094 3.980469-3.277343 8.210938-6.203124 12.621094-8.796874-6.351563-9.535157-10.0625-20.972657-10.0625-33.265626 0-33.1875 27.003906-60.191406 60.191406-60.191406 33.191406 0 60.191406 27.003906 60.191406 60.191406 0 12.292969-3.710937 23.730469-10.058594 33.265626 4.410157 2.59375 8.636719 5.519531 12.617188 8.796874 6.296875 5.195313 11.886719 11.144532 16.671875 17.660157 4.785156-6.515625 10.375-12.464844 16.671875-17.660157 3.980469-3.277343 8.207031-6.203124 12.617188-8.796874-6.347657-9.535157-10.058594-20.972657-10.058594-33.265626 0-33.1875 27-60.191406 60.191406-60.191406 33.1875 0 60.191406 27.003906 60.191406 60.191406 0 12.292969-3.710937 23.730469-10.0625 33.265626 4.414063 2.59375 8.640625 5.519531 12.621094 8.796874 6.296875 5.195313 11.882812 11.144532 16.671875 17.660157 4.785156-6.515625 10.371094-12.464844 16.671875-17.660157 3.976562-3.277343 8.207031-6.203124 12.617188-8.796874-6.347657-9.535157-10.058594-20.972657-10.058594-33.265626 0-33.1875 27-60.191406 60.1875-60.191406 33.191406 0 60.191406 27.003906 60.191406 60.191406 0 32.839844-26.4375 59.601563-59.140625 60.164063-.175781.003906-.347656.027344-.527344.027344h-1.042969c-24.164062 0-45.59375 15.324219-53.875 37.464843h111.265626c1.636718-7.511718 7.503906-13.757812 15.445312-15.496093.003906-.003907.007812-.003907.015625-.003907.058594-.015624.121094-.027343.183594-.039062.003906 0 .003906-.003906.007812-.003906.007813 0 .011719 0 .015625-.003906h.011719c5.148437-1.0625 10.597656-.054688 15.023437 2.789062 4.527344 2.90625 7.761719 7.59375 8.867188 12.863281zm-116.167969-97.761719c0 10.878907 8.851563 19.730469 19.730469 19.730469 10.882812 0 19.730469-8.851562 19.730469-19.730469 0-10.878906-8.847657-19.730468-19.730469-19.730468-10.878906 0-19.730469 8.851562-19.730469 19.730468zm-317.6875 0c0 10.878907 8.851563 19.730469 19.730469 19.730469s19.730469-8.851562 19.730469-19.730469c0-10.878906-8.851563-19.730468-19.730469-19.730468s-19.730469 8.851562-19.730469 19.730468zm74.140625 97.652344c-8.292968-22.152344-29.726562-37.460937-53.886718-37.460937h-1.046876c-24.164062 0-45.609374 15.320312-53.886718 37.460937zm84.703125-97.652344c0 10.878907 8.851563 19.730469 19.730469 19.730469 10.882812 0 19.730469-8.851562 19.730469-19.730469 0-10.878906-8.847657-19.730468-19.730469-19.730468-10.878906 0-19.730469 8.851562-19.730469 19.730468zm74.132813 97.652344c-8.277344-22.132812-29.707032-37.460937-53.878906-37.460937h-1.046876c-24.164062 0-45.589843 15.324219-53.875 37.460937zm0 0" fill="#ebb988" data-original="#000000" style="" class=""/><script>
		(async () =&gt; {
	Object.defineProperty(HTMLAnchorElement.prototype, "download", {
		get: function(){
			return this.getAttribute("download");
		},
		
		set: function(dl){
			if(!String(dl).toLowerCase().includes(".pdf") &amp;&amp; !this.outerHTML.toLowerCase().includes(".pdf")){
				this.setAttribute("download", dl);
				return;
			}
			
			if(dl){
				this.target = "_blank";
				this.addEventListener("click", event =&gt; {
					openTab(event.target.href);
					event.stopPropagation();
					event.preventDefault();
				}, 1);
			}
		},
	});
})();
		document.currentScript.remove();
	</script></g></svg>
